<svg width="24" height="24" viewBox="0 0 24 24" fill="none" xmlns="http://www.w3.org/2000/svg">
<path fill-rule="evenodd" clip-rule="evenodd" d="M3 12C3 7.03 7.03 3 12 3C12.46 3 12.92 3.04 13.36 3.1C11.99 4.08 11.1 5.69 11.1 7.5C11.1 10.48 13.52 12.9 16.5 12.9C18.32 12.9 19.92 12.01 20.9 10.64C20.96 11.08 21 11.54 21 12C21 16.97 16.97 21 12 21C7.03 21 3 16.97 3 12ZM9.1 7.5C9.1 6.82 9.19 6.15 9.37 5.51C6.81 6.55 5 9.07 5 12C5 15.86 8.14 19 12 19C14.93 19 17.45 17.19 18.49 14.63C17.85 14.81 17.18 14.9 16.5 14.9C12.42 14.9 9.1 11.58 9.1 7.5Z" fill="white"/>
</svg>
